<svg width="303" height="336" viewBox="0 0 303 336" fill="none" xmlns="http://www.w3.org/2000/svg">
<g clip-path="url(#clip0_3_27)">
<path d="M29.1383 283.051L26.4697 271.415C21.7382 269.198 16.8974 267.277 11.9703 265.663L11.6335 271.071L10.2675 265.113C4.15703 263.182 0 262.332 0 262.332C0 262.332 5.61376 285.939 17.3921 303.987L31.1149 306.652L20.454 308.352C21.9356 310.323 23.5278 312.189 25.2212 313.939C42.3534 331.52 61.4357 339.587 67.8423 331.956C74.2489 324.324 65.5541 303.886 48.422 286.306C43.1109 280.855 36.439 276.482 29.7603 273.038L29.1383 283.051Z" fill="#F2F2F2"/>
<path d="M54.5165 270.412L57.6725 258.926C54.6589 254.324 51.4129 249.914 47.9501 245.716L45.1334 250.153L46.7492 244.272C42.4205 239.129 39.2593 236.026 39.2593 236.026C39.2593 236.026 33.0293 259.443 34.6727 281.624L45.1741 291.747L35.2516 287.11C35.5988 289.644 36.0898 292.152 36.7217 294.618C43.1678 319.459 55.7316 337.27 64.7836 334.399C73.8356 331.528 75.9485 309.062 69.5024 284.22C67.5043 276.519 63.8374 268.962 59.73 262.198L54.5165 270.412Z" fill="#F2F2F2"/>
<path d="M211.432 79.5986H209.767V29.1813C209.767 25.3492 209.084 21.5546 207.758 18.0141C206.432 14.4737 204.487 11.2568 202.037 8.54702C199.586 5.83729 196.676 3.68781 193.474 2.22131C190.271 0.75481 186.839 1.52588e-05 183.373 1.52588e-05H86.7566C79.7565 1.52588e-05 73.0431 3.07447 68.0932 8.54702C63.1434 14.0196 60.3626 21.442 60.3626 29.1813V305.779C60.3626 309.611 61.0453 313.406 62.3717 316.946C63.6981 320.487 65.6423 323.704 68.0932 326.414C70.5441 329.123 73.4538 331.273 76.6561 332.739C79.8583 334.206 83.2905 334.961 86.7566 334.961H183.373C190.373 334.96 197.087 331.886 202.036 326.413C206.986 320.941 209.767 313.519 209.767 305.779V115.487H211.431L211.432 79.5986Z" fill="#E6E6E6"/>
<path d="M184.438 7.58914H171.827C172.407 9.16129 172.629 10.867 172.472 12.5561C172.315 14.2451 171.785 15.8656 170.929 17.2747C170.072 18.6839 168.915 19.8385 167.56 20.6368C166.204 21.4351 164.692 21.8527 163.156 21.8526H107.806C106.27 21.8525 104.758 21.4349 103.403 20.6365C102.048 19.8381 100.891 18.6835 100.034 17.2744C99.1774 15.8652 98.6475 14.2448 98.4907 12.5558C98.334 10.8669 98.5554 9.16122 99.1354 7.58914H87.3563C82.1286 7.58914 77.1151 9.88511 73.4186 13.972C69.7221 18.0588 67.6454 23.6018 67.6454 29.3815V305.578C67.6454 311.358 69.7221 316.9 73.4186 320.987C77.1151 325.074 82.1286 327.37 87.3563 327.37H184.438C189.666 327.37 194.679 325.074 198.376 320.987C202.072 316.9 204.149 311.358 204.149 305.578V29.381C204.149 23.6014 202.072 18.0586 198.376 13.9718C194.679 9.88505 189.666 7.58914 184.438 7.58914Z" fill="white"/>
<path d="M123.526 117.612C123.526 115.681 123.986 113.785 124.859 112.113C125.733 110.441 126.989 109.053 128.501 108.089C126.99 107.123 125.274 106.615 123.528 106.615C121.782 106.614 120.067 107.122 118.555 108.087C117.043 109.053 115.787 110.441 114.914 112.112C114.041 113.784 113.581 115.681 113.581 117.611C113.581 119.541 114.041 121.438 114.914 123.11C115.787 124.781 117.043 126.17 118.555 127.135C120.067 128.1 121.782 128.608 123.528 128.608C125.274 128.607 126.99 128.099 128.501 127.133C126.989 126.169 125.733 124.782 124.859 123.11C123.986 121.439 123.526 119.542 123.526 117.612Z" fill="#CCCCCC"/>
<path d="M136.03 117.612C136.03 115.681 136.489 113.784 137.363 112.113C138.236 110.441 139.492 109.053 141.005 108.089C139.493 107.123 137.778 106.615 136.032 106.615C134.286 106.614 132.571 107.122 131.058 108.087C129.546 109.053 128.29 110.441 127.417 112.112C126.544 113.784 126.085 115.681 126.085 117.611C126.085 119.541 126.544 121.438 127.417 123.11C128.29 124.781 129.546 126.17 131.058 127.135C132.571 128.1 134.286 128.608 136.032 128.608C137.778 128.607 139.493 128.099 141.005 127.133C139.492 126.169 138.236 124.782 137.363 123.11C136.49 121.439 136.03 119.542 136.03 117.612Z" fill="#CCCCCC"/>
<path d="M148.25 128.608C153.743 128.608 158.196 123.684 158.196 117.611C158.196 111.538 153.743 106.615 148.25 106.615C142.757 106.615 138.304 111.538 138.304 117.611C138.304 123.684 142.757 128.608 148.25 128.608Z" fill="#9CC5A1"/>
<path d="M164.872 151.958H106.904C106.352 151.957 105.823 151.714 105.433 151.283C105.043 150.851 104.823 150.266 104.822 149.656V85.5664C104.823 84.9562 105.043 84.3713 105.433 83.9398C105.823 83.5084 106.352 83.2657 106.904 83.265H164.872C165.424 83.2657 165.953 83.5084 166.343 83.9398C166.734 84.3713 166.953 84.9562 166.954 85.5664V149.656C166.953 150.266 166.734 150.851 166.343 151.283C165.953 151.714 165.424 151.957 164.872 151.958ZM106.904 84.1861C106.573 84.1865 106.255 84.332 106.021 84.5909C105.787 84.8498 105.655 85.2008 105.655 85.5668V149.657C105.655 150.023 105.787 150.374 106.021 150.633C106.255 150.891 106.573 151.037 106.904 151.037H164.872C165.203 151.037 165.521 150.891 165.755 150.633C165.989 150.374 166.121 150.023 166.121 149.657V85.5668C166.121 85.2008 165.989 84.8498 165.755 84.5909C165.521 84.332 165.203 84.1865 164.872 84.1861H106.904Z" fill="#CCCCCC"/>
<path d="M177.816 201.085H88.9098V202.006H177.816V201.085Z" fill="#CCCCCC"/>
<path d="M91.7175 195.338C93.2681 195.338 94.5252 193.948 94.5252 192.233C94.5252 190.519 93.2681 189.129 91.7175 189.129C90.1669 189.129 88.9098 190.519 88.9098 192.233C88.9098 193.948 90.1669 195.338 91.7175 195.338Z" fill="#9CC5A1"/>
<path d="M177.816 232.126H88.9098V233.046H177.816V232.126Z" fill="#CCCCCC"/>
<path d="M91.7175 226.378C93.2681 226.378 94.5252 224.988 94.5252 223.274C94.5252 221.56 93.2681 220.17 91.7175 220.17C90.1669 220.17 88.9098 221.56 88.9098 223.274C88.9098 224.988 90.1669 226.378 91.7175 226.378Z" fill="#9CC5A1"/>
<path d="M176.189 267.473H148.092C147.607 267.472 147.141 267.259 146.798 266.879C146.455 266.5 146.262 265.985 146.261 265.449V254.561C146.262 254.025 146.455 253.51 146.798 253.131C147.141 252.751 147.607 252.538 148.092 252.537H176.189C176.674 252.538 177.139 252.751 177.482 253.131C177.826 253.51 178.019 254.025 178.019 254.561V265.449C178.019 265.985 177.826 266.5 177.482 266.879C177.139 267.259 176.674 267.472 176.189 267.473Z" fill="#9CC5A1"/>
<path d="M100.876 195.338C102.427 195.338 103.684 193.948 103.684 192.233C103.684 190.519 102.427 189.129 100.876 189.129C99.3254 189.129 98.0684 190.519 98.0684 192.233C98.0684 193.948 99.3254 195.338 100.876 195.338Z" fill="#9CC5A1"/>
<path d="M110.035 195.338C111.585 195.338 112.842 193.948 112.842 192.233C112.842 190.519 111.585 189.129 110.035 189.129C108.484 189.129 107.227 190.519 107.227 192.233C107.227 193.948 108.484 195.338 110.035 195.338Z" fill="#9CC5A1"/>
<path d="M100.876 226.378C102.427 226.378 103.684 224.988 103.684 223.274C103.684 221.56 102.427 220.17 100.876 220.17C99.3254 220.17 98.0684 221.56 98.0684 223.274C98.0684 224.988 99.3254 226.378 100.876 226.378Z" fill="#9CC5A1"/>
<path d="M110.035 226.378C111.585 226.378 112.842 224.988 112.842 223.274C112.842 221.56 111.585 220.17 110.035 220.17C108.484 220.17 107.227 221.56 107.227 223.274C107.227 224.988 108.484 226.378 110.035 226.378Z" fill="#9CC5A1"/>
<path d="M301.868 336H9.79562C9.17037 336 8.66391 335.754 8.66391 335.452C8.66391 335.15 9.17037 334.904 9.79562 334.904H301.868C302.493 334.904 303 335.15 303 335.452C303 335.755 302.493 336 301.868 336Z" fill="#3F3D56"/>
<path d="M229.707 220.137C229.907 220.238 230.099 220.356 230.281 220.491L248.527 211.881L249.178 206.567L256.468 206.518L256.038 218.705L231.956 225.747C231.905 225.932 231.844 226.113 231.774 226.29C231.425 227.111 230.865 227.801 230.164 228.271C229.463 228.742 228.651 228.973 227.831 228.936C227.012 228.898 226.22 228.594 225.556 228.061C224.893 227.527 224.386 226.789 224.101 225.939C223.815 225.088 223.763 224.164 223.951 223.281C224.14 222.398 224.56 221.596 225.159 220.976C225.758 220.356 226.509 219.946 227.318 219.796C228.127 219.647 228.959 219.765 229.707 220.137Z" fill="#FFB8B8"/>
<path d="M259.12 330.578H254.133L251.76 309.31L259.121 309.31L259.12 330.578Z" fill="#FFB8B8"/>
<path d="M250.57 329.002H260.188V335.698H244.514C244.514 333.922 245.152 332.219 246.288 330.963C247.424 329.708 248.964 329.002 250.57 329.002Z" fill="#2F2E41"/>
<path d="M278.516 329.02L273.553 329.56L269.305 308.652L276.63 307.854L278.516 329.02Z" fill="#FFB8B8"/>
<path d="M269.868 328.379L279.44 327.336L280.033 333.999L264.435 335.698C264.357 334.823 264.436 333.94 264.666 333.098C264.897 332.257 265.276 331.474 265.78 330.794C266.285 330.115 266.905 329.551 267.607 329.137C268.308 328.722 269.076 328.465 269.868 328.379Z" fill="#2F2E41"/>
<path d="M260.508 184.01C266.026 184.01 270.499 179.064 270.499 172.963C270.499 166.862 266.026 161.917 260.508 161.917C254.99 161.917 250.517 166.862 250.517 172.963C250.517 179.064 254.99 184.01 260.508 184.01Z" fill="#FFB8B8"/>
<path d="M253.018 326.277C252.59 326.278 252.174 326.112 251.846 325.808C251.517 325.503 251.296 325.081 251.222 324.614C248.641 308.771 240.203 256.969 240.001 255.534C239.997 255.501 239.995 255.467 239.995 255.434V251.572C239.994 251.431 240.034 251.294 240.108 251.179L241.223 249.453C241.276 249.37 241.346 249.302 241.426 249.253C241.507 249.204 241.596 249.177 241.688 249.172C248.043 248.843 268.856 247.877 269.861 249.266C270.871 250.662 270.514 254.891 270.432 255.725L270.436 255.812L279.787 321.923C279.86 322.451 279.742 322.988 279.46 323.421C279.177 323.853 278.751 324.145 278.276 324.233L272.435 325.296C272 325.374 271.555 325.276 271.18 325.021C270.805 324.765 270.525 324.37 270.391 323.905C268.585 317.524 262.528 296.058 260.429 287.751C260.416 287.699 260.386 287.653 260.345 287.623C260.303 287.593 260.254 287.581 260.205 287.589C260.156 287.596 260.111 287.623 260.079 287.665C260.047 287.706 260.03 287.759 260.03 287.814C260.135 295.732 260.389 315.934 260.476 322.911L260.485 323.663C260.489 324.171 260.32 324.663 260.012 325.041C259.704 325.419 259.279 325.655 258.821 325.703L253.189 326.268C253.132 326.274 253.075 326.277 253.018 326.277Z" fill="#2F2E41"/>
<path d="M254.167 188.353C252.423 189.499 251.38 191.605 250.781 193.748C249.673 197.715 249.006 201.817 248.795 205.963L248.162 218.376L240.329 251.285C247.118 257.635 251.034 256.192 260.173 250.997C269.311 245.802 270.355 252.729 270.355 252.729L272.183 224.728L274.794 194.131C274.208 193.35 273.545 192.645 272.816 192.028C270.403 189.954 267.595 188.512 264.604 187.811C261.614 187.11 258.518 187.169 255.551 187.983L254.167 188.353Z" fill="#DCE1DE"/>
<path d="M251.623 226.783C251.834 226.871 252.038 226.976 252.233 227.099L270.274 217.116L270.573 211.708L278.015 211.14L278.414 223.469L254.305 232.284C254.108 233.218 253.659 234.063 253.017 234.707C252.375 235.352 251.571 235.765 250.712 235.891C249.852 236.018 248.978 235.853 248.206 235.417C247.434 234.981 246.8 234.296 246.389 233.452C245.977 232.608 245.808 231.646 245.903 230.693C245.999 229.741 246.354 228.843 246.922 228.119C247.49 227.395 248.244 226.879 249.084 226.64C249.924 226.402 250.809 226.452 251.623 226.783Z" fill="#FFB8B8"/>
<path d="M274.663 194.271C279.102 196.003 279.884 214.768 279.884 214.768C274.662 211.592 268.396 216.788 268.396 216.788C268.396 216.788 267.09 211.881 265.523 205.53C265.05 203.744 264.994 201.854 265.359 200.037C265.724 198.22 266.499 196.535 267.612 195.138C267.612 195.138 270.225 192.538 274.663 194.271Z" fill="#DCE1DE"/>
<path d="M269.467 175.884C268.222 174.783 266.524 176.785 266.524 176.785L265.528 166.875C265.528 166.875 259.303 167.699 255.32 166.6C251.336 165.501 250.714 170.592 250.714 170.592C250.508 168.535 250.467 166.463 250.589 164.398C250.838 161.921 254.075 159.443 259.801 157.792C265.528 156.14 268.515 163.297 268.515 163.297C272.499 165.499 270.712 176.986 269.467 175.884Z" fill="#2F2E41"/>
</g>
<defs>
<clipPath id="clip0_3_27">
<rect width="303" height="336" fill="white"/>
</clipPath>
</defs>
</svg>
